<?xml version="1.0" standalone="no"?>
<!DOCTYPE svg PUBLIC "-//W3C//DTD SVG 20010904//EN"
 "http://www.w3.org/TR/2001/REC-SVG-20010904/DTD/svg10.dtd">
<svg version="1.0" xmlns="http://www.w3.org/2000/svg"
 width="500.000000pt" height="500.000000pt" viewBox="0 0 500.000000 500.000000"
 preserveAspectRatio="xMidYMid meet">

<g transform="translate(0.000000,500.000000) scale(0.100000,-0.100000)"
fill="#000000" stroke="none">
<path d="M1054 4459 c-51 -24 -103 -79 -139 -143 l-27 -50 24 -17 c14 -11 27
-14 32 -8 17 16 82 10 99 -9 24 -26 21 -45 -10 -71 l-26 -23 6 35 c5 34 5 35
-31 40 -20 2 -41 0 -46 -4 -14 -13 -67 -11 -123 3 -27 7 -50 13 -52 15 -10 7
24 33 44 33 31 0 55 10 55 22 0 17 -102 2 -147 -20 -51 -26 -107 -89 -123
-137 -8 -23 -11 -65 -8 -107 l5 -69 -37 -19 c-124 -63 -188 -259 -129 -397 39
-91 113 -162 188 -183 29 -8 40 -17 50 -45 16 -44 85 -93 143 -101 75 -10 126
10 190 78 l57 60 23 -39 c13 -21 29 -51 36 -66 19 -44 52 -33 80 26 l22 48 45
-39 c71 -63 178 -81 242 -42 25 15 43 18 81 13 88 -10 190 53 227 141 l16 38
-31 -22 -31 -22 3 38 c3 35 1 38 -22 39 -16 0 -26 7 -28 19 -4 16 0 18 28 13
l31 -7 -1 53 c-3 80 -1 86 20 97 15 8 18 7 15 -2 -7 -19 9 -40 26 -33 18 7 64
73 74 105 7 23 4 22 -32 -12 -21 -21 -42 -38 -46 -38 -4 0 4 21 18 47 29 56
33 128 10 194 -22 61 -58 95 -117 109 -66 16 -78 31 -78 94 0 59 -15 111 -39
140 -9 10 -40 34 -69 53 -49 32 -56 33 -88 23 -48 -16 -76 -7 -108 35 -36 46
-96 76 -168 82 -32 3 -58 10 -58 14 0 5 3 9 8 10 11 1 34 7 67 18 25 8 19 9
-40 10 -50 0 -82 -6 -111 -20z m16 -52 c0 -7 -13 -29 -30 -47 -16 -18 -30 -29
-30 -24 0 6 5 15 12 22 7 7 8 12 3 12 -5 0 2 11 15 25 27 29 30 30 30 12z
m-235 -319 c52 -30 60 -38 60 -63 0 -35 -28 -42 -33 -9 -2 14 -17 28 -43 39
-80 36 -144 99 -133 130 6 14 14 10 48 -24 22 -22 68 -55 101 -73z m516 69
c41 -27 89 -116 89 -166 0 -48 -17 -107 -36 -126 -9 -8 -12 -15 -7 -15 4 0 -5
-9 -22 -20 -43 -28 -48 -25 -20 15 35 53 48 101 42 156 -8 64 -31 106 -73 131
-34 20 -46 48 -20 48 7 0 28 -10 47 -23z m-174 -48 c55 -27 104 -84 121 -142
15 -50 10 -153 -8 -171 -6 -6 -10 -6 -10 -1 -3 94 -24 185 -53 228 -23 33 -86
67 -125 67 -34 0 -43 7 -35 26 8 20 60 17 110 -7z m403 -60 c25 -34 30 -104
11 -161 -11 -32 -67 -95 -77 -86 -2 2 6 23 18 47 11 24 24 61 28 83 8 43 -4
108 -20 108 -6 0 -10 9 -10 20 0 30 26 24 50 -11z m-472 -94 c45 -21 52 -28
52 -52 0 -15 -5 -35 -10 -43 -8 -12 -10 -9 -8 10 4 38 -68 72 -145 68 -60 -3
-74 9 -34 28 37 19 89 15 145 -11z m122 -117 c30 -57 26 -76 -9 -39 -28 29
-46 82 -34 95 7 7 15 -3 43 -56z m471 11 c16 -30 3 -79 -31 -119 -22 -26 -32
-32 -41 -23 -8 8 -6 16 9 31 25 25 38 80 23 95 -17 17 -13 37 9 37 10 0 24 -9
31 -21z m-587 -29 c14 -5 26 -17 26 -25 0 -16 -22 -16 -114 1 -11 2 -27 -3
-37 -11 -14 -14 -18 -14 -30 2 -9 11 -10 14 -1 9 6 -4 12 -3 12 1 0 11 55 30
92 32 15 0 38 -3 52 -9z m101 -50 c3 -5 1 -10 -4 -10 -6 0 -11 5 -11 10 0 6 2
10 4 10 3 0 8 -4 11 -10z m272 -46 c5 -15 -82 -25 -127 -15 -39 9 -27 18 30
23 63 6 93 3 97 -8z m-355 -26 c-4 -28 -6 -30 -12 -13 -4 11 -3 26 2 33 15 17
15 16 10 -20z m88 12 c6 -11 8 -20 6 -20 -3 0 -10 9 -16 20 -6 11 -8 20 -6 20
3 0 10 -9 16 -20z m-155 -2 c5 4 5 1 1 -6 -6 -10 -11 -10 -22 -1 -8 6 -14 14
-14 16 0 3 6 0 13 -6 8 -6 18 -7 22 -3z m-75 -42 c0 -6 -4 -5 -9 3 -10 16 -31
6 -31 -15 0 -8 -7 -14 -16 -14 -12 0 -11 6 8 29 16 20 27 26 36 18 6 -5 12
-15 12 -21z m387 -12 c20 -13 43 -24 52 -24 11 -1 8 -5 -9 -15 -17 -9 -29 -10
-37 -3 -7 5 -18 6 -25 2 -7 -4 -10 -3 -5 1 4 5 -7 24 -25 43 -30 31 -31 34 -9
27 12 -4 39 -18 58 -31z m-66 -44 c18 -39 18 -40 -3 -51 -15 -8 -19 -8 -14 0
4 6 2 11 -4 11 -6 0 -8 4 -5 10 3 5 1 18 -5 29 -9 19 -3 58 8 47 3 -3 13 -24
23 -46z m279 46 c0 -2 -7 -7 -16 -10 -8 -3 -12 -2 -9 4 6 10 25 14 25 6z
m-473 -31 c0 -8 -4 -12 -9 -9 -5 3 -6 10 -3 15 9 13 12 11 12 -6z m-332 -4 c3
-5 2 -12 -3 -15 -5 -3 -9 1 -9 9 0 17 3 19 12 6z m755 -1 c0 -5 -5 -10 -11
-10 -5 0 -7 5 -4 10 3 6 8 10 11 10 2 0 4 -4 4 -10z m71 -3 c60 8 102 -40 67
-75 -21 -21 -39 -14 -32 12 5 21 2 24 -31 28 -20 2 -38 1 -41 -3 -3 -6 -57 -6
-108 0 -4 1 2 10 15 20 16 13 28 16 35 10 14 -11 44 -1 45 15 0 8 2 8 5 0 3
-8 20 -10 45 -7z m-537 -150 c-5 -22 -3 -28 6 -22 9 6 11 4 6 -4 -6 -9 -12 -8
-26 4 -19 17 -33 75 -18 75 4 0 8 10 8 23 1 18 4 16 16 -12 9 -21 12 -47 8
-64z m-234 68 c0 -2 -6 -5 -13 -8 -8 -3 -14 1 -14 8 0 7 6 11 14 8 7 -3 13 -6
13 -8z m105 -3 c-3 -3 -11 0 -18 7 -9 10 -8 11 6 5 10 -3 15 -9 12 -12z m-224
-15 c20 -13 46 -45 62 -77 23 -45 28 -65 24 -107 -2 -29 -6 -56 -10 -59 -15
-15 -27 12 -27 59 -1 70 -30 132 -75 158 -35 21 -41 30 -28 42 10 11 18 9 54
-16z m746 -61 c54 -27 78 -65 55 -88 -13 -13 -32 -2 -32 21 0 11 -18 26 -50
41 -27 13 -57 32 -66 41 -9 10 -22 16 -28 12 -6 -4 -2 3 8 15 19 22 20 22 40
3 12 -10 45 -31 73 -45z m-563 16 c3 -5 -1 -9 -9 -9 -8 0 -12 4 -9 9 3 4 7 8
9 8 2 0 6 -4 9 -8z m-309 -32 c15 -16 15 -20 3 -20 -8 0 -23 9 -33 20 -15 16
-15 20 -3 20 8 0 23 -9 33 -20z m739 4 c5 -14 4 -15 -9 -4 -17 14 -19 20 -6
20 5 0 12 -7 15 -16z m-391 -22 c8 -9 21 -31 27 -47 7 -17 14 -24 17 -17 7 18
23 15 23 -5 0 -10 -15 -27 -33 -38 -46 -28 -47 -28 -45 -8 3 43 -3 71 -22 93
-16 18 -17 25 -8 32 18 11 23 10 41 -10z m351 -10 c3 -5 -1 -9 -9 -9 -8 0 -12
4 -9 9 3 4 7 8 9 8 2 0 6 -4 9 -8z m-20 -38 c11 -28 7 -35 -14 -24 -11 6 -17
16 -14 25 8 20 20 19 28 -1z m433 -48 c-4 -12 -73 -26 -82 -18 -3 3 -5 11 -5
19 0 9 13 13 45 11 28 -1 44 -6 42 -12z m-97 -12 c0 -2 -7 -4 -15 -4 -8 0 -15
4 -15 10 0 5 7 7 15 4 8 -4 15 -8 15 -10z"/>
<path d="M1440 4350 c0 -19 27 -21 61 -6 l34 14 -47 1 c-27 1 -48 -4 -48 -9z"/>
<path d="M4204 3315 c-152 -48 -221 -167 -179 -311 21 -75 79 -132 190 -191
109 -57 138 -89 139 -150 2 -86 -42 -143 -109 -143 -23 0 -26 -3 -22 -21 5
-19 3 -21 -26 -15 -88 18 -147 86 -150 176 -2 35 -5 40 -26 40 -22 0 -23 -2
-17 -46 3 -26 6 -72 6 -103 l0 -57 44 -21 c99 -49 224 -50 315 -4 70 36 144
145 103 153 -11 2 -15 22 -17 78 -1 41 -8 87 -15 103 -14 30 -127 127 -147
127 -7 0 -40 19 -74 42 -65 45 -98 96 -99 151 0 35 17 70 31 62 5 -4 25 7 45
24 78 69 183 20 209 -96 6 -30 9 -32 38 -26 42 8 42 8 19 29 -11 11 -23 39
-26 64 -11 68 -24 89 -65 96 -51 9 -57 15 -30 30 23 13 21 13 -23 14 -25 0
-52 2 -60 4 -7 2 -31 -2 -54 -9z"/>
<path d="M2030 3277 c0 -20 7 -31 25 -39 16 -7 29 -24 35 -47 13 -48 13 -575
-1 -623 -7 -27 -17 -40 -34 -44 -20 -5 -25 -12 -25 -40 l0 -34 190 0 c203 0
274 10 330 45 44 28 55 41 75 90 14 31 14 37 2 32 -11 -4 -16 9 -20 60 -8 83
-35 126 -98 158 -67 34 -87 75 -36 75 26 0 81 35 100 63 25 38 30 67 13 67
-12 0 -16 11 -17 43 -1 72 -19 109 -73 144 -26 18 -51 31 -56 28 -4 -2 -16 2
-26 10 -17 13 -15 14 21 9 l40 -4 -30 14 c-23 10 -83 15 -223 18 l-192 3 0
-28z m360 -80 c31 -15 60 -71 60 -116 0 -58 -37 -121 -84 -142 -23 -10 -49
-19 -58 -19 -10 0 -17 -6 -15 -12 1 -7 -10 -14 -25 -16 -47 -5 -57 25 -57 172
-1 70 1 131 3 135 8 13 150 12 176 -2z m25 -371 c39 -25 59 -74 59 -141 1 -97
-46 -145 -139 -145 -31 0 -47 -5 -51 -15 -10 -24 -53 -19 -63 8 -5 12 -8 85
-7 162 l1 139 25 8 c40 12 147 2 175 -16z"/>
<path d="M2740 3273 c0 -22 6 -33 18 -38 11 -3 24 -17 30 -31 16 -33 17 -627
1 -655 -5 -11 -21 -24 -35 -29 -18 -7 -24 -17 -24 -40 l0 -30 270 0 c269 0
270 0 270 21 0 12 -7 27 -17 34 -14 11 -15 18 -3 61 27 107 28 113 14 118 -9
4 -21 -11 -35 -43 -34 -80 -57 -95 -152 -100 -57 -2 -85 -8 -92 -18 -16 -21
-47 -12 -62 17 -12 23 -17 234 -6 281 2 12 20 16 82 18 85 2 105 -7 117 -55 5
-19 13 -24 39 -24 28 0 32 3 28 20 -3 11 -9 20 -14 20 -4 0 -13 19 -19 42 -11
38 -10 61 6 141 8 40 -18 35 -47 -10 -22 -34 -29 -38 -72 -41 -39 -3 -47 -6
-47 -23 0 -22 -27 -26 -54 -6 -15 11 -19 34 -23 149 -4 106 -2 138 9 144 7 5
55 10 105 12 112 5 135 -6 165 -79 21 -51 43 -62 78 -39 13 9 12 13 -8 28 -14
11 -25 32 -28 57 -10 73 -14 85 -32 85 -11 1 -7 6 13 18 l30 17 -50 2 c-27 2
-141 4 -253 5 l-202 3 0 -32z"/>
<path d="M3390 3277 c0 -26 5 -37 18 -42 11 -3 24 -17 30 -31 16 -33 17 -627
1 -655 -5 -11 -21 -24 -35 -29 -18 -7 -24 -17 -24 -40 l0 -30 260 0 c223 0
261 2 266 15 4 9 -3 23 -17 34 l-23 18 22 74 c26 87 26 89 8 89 -7 0 -21 -20
-30 -45 -10 -24 -31 -56 -47 -70 -26 -22 -40 -25 -101 -25 -55 0 -74 -4 -83
-17 -11 -14 -17 -15 -38 -6 -23 11 -26 19 -32 96 -4 47 -4 117 0 155 l7 70 77
1 c82 2 104 -9 113 -54 4 -25 58 -35 58 -11 0 8 -4 17 -9 21 -5 3 -17 27 -26
54 -15 45 -15 54 -1 102 9 29 14 54 11 57 -10 10 -35 -9 -35 -27 0 -28 -37
-51 -81 -51 -29 0 -38 -5 -42 -21 -4 -16 -10 -19 -29 -14 -45 14 -50 30 -46
177 3 136 7 156 27 143 6 -3 51 -7 100 -8 102 -2 121 -13 152 -84 15 -35 23
-43 44 -43 28 0 32 15 11 39 -23 26 -55 143 -45 164 9 16 -4 17 -203 17 -117
0 -223 3 -235 6 -21 6 -23 3 -23 -29z"/>
<path d="M551 3168 c52 -105 143 -224 306 -402 89 -96 126 -175 131 -279 7
-134 -31 -422 -103 -791 -28 -138 -38 -166 -60 -166 -30 0 -245 -117 -245
-133 0 -2 53 7 118 19 296 58 604 53 920 -17 51 -12 95 -19 97 -17 5 5 -214
95 -265 109 -25 6 -54 15 -65 19 -11 5 -31 12 -44 16 l-24 6 24 13 24 13 -27
7 c-17 5 -35 1 -53 -11 -26 -17 -28 -17 -40 0 -14 18 -9 55 9 71 18 16 39 87
28 94 -6 4 -5 39 5 101 21 141 31 324 21 418 -10 109 -4 288 12 331 12 31 14
32 26 17 11 -15 13 -13 24 19 11 34 100 159 152 215 78 82 202 241 228 290
l13 25 -22 -19 c-30 -27 -26 -10 9 34 16 21 30 41 30 45 0 3 -37 -27 -82 -67
-160 -142 -323 -262 -398 -295 -19 -8 -72 -17 -118 -20 -79 -6 -82 -7 -66 -24
15 -17 15 -18 -12 -13 -164 30 -377 186 -518 381 -61 83 -74 87 -35 11z m659
-1104 c12 -121 11 -457 -2 -470 -4 -3 -31 -6 -60 -5 -90 2 -201 -19 -221 -42
-19 -22 -22 -21 -31 9 -4 14 1 29 15 45 22 26 62 108 111 229 16 41 36 89 43
105 54 123 76 202 69 240 -5 28 -3 34 8 30 8 -3 21 2 29 11 12 15 14 14 20 -9
4 -13 12 -78 19 -143z m-160 -119 c0 -8 -7 -15 -15 -15 -9 0 -12 6 -9 15 4 8
10 15 15 15 5 0 9 -7 9 -15z"/>
<path d="M1113 3131 c-96 -44 -98 -184 -3 -248 57 -40 134 -22 165 37 19 37
19 37 -5 43 -15 4 -20 14 -20 42 0 29 -8 45 -35 72 -19 19 -32 40 -29 45 6 9
-12 28 -26 28 -3 0 -24 -9 -47 -19z"/>
<path d="M3547 2183 c-10 -9 -9 -23 2 -23 5 0 11 7 15 15 5 15 -5 20 -17 8z"/>
<path d="M1948 2158 c8 -8 12 -45 12 -100 0 -72 -3 -89 -17 -97 -14 -8 -8 -10
27 -10 36 0 42 2 27 10 -13 8 -18 21 -17 47 1 21 2 65 1 100 -1 57 -3 62 -23
62 -17 0 -19 -3 -10 -12z"/>
<path d="M2038 2147 c28 -30 28 -61 0 -87 -18 -16 -19 -20 -6 -20 9 0 26 12
37 26 19 25 20 28 4 58 -16 31 -31 46 -47 46 -5 0 0 -10 12 -23z"/>
<path d="M2935 2160 c-7 -12 2 -30 16 -30 12 0 12 27 0 35 -5 3 -12 1 -16 -5z"/>
<path d="M4005 2160 c-4 -6 -2 -17 4 -23 15 -15 25 -2 13 19 -7 12 -11 13 -17
4z"/>
<path d="M2280 2141 c-7 -15 -7 -21 0 -21 12 0 25 28 17 36 -3 3 -10 -4 -17
-15z"/>
<path d="M3480 2150 c0 -6 5 -10 10 -10 15 0 13 -177 -2 -184 -7 -3 21 -4 62
-3 72 2 75 3 78 27 l3 25 -16 -23 c-13 -18 -25 -22 -53 -20 l-37 3 -2 55 c-1
30 1 70 3 88 4 29 8 32 37 32 18 0 38 -5 45 -12 9 -9 12 -9 12 -1 0 15 -26 23
-90 28 -29 3 -50 0 -50 -5z"/>
<path d="M4226 2144 c-9 -24 -7 -28 9 -14 17 14 20 30 6 30 -5 0 -12 -7 -15
-16z"/>
<path d="M2836 2105 c-9 -14 -12 -25 -6 -25 6 0 10 -27 10 -64 0 -49 4 -65 16
-70 25 -10 37 4 17 19 -15 11 -18 25 -15 89 2 42 1 76 -1 76 -3 0 -12 -11 -21
-25z"/>
<path d="M4086 2105 c-9 -14 -12 -25 -6 -25 6 0 10 -25 10 -59 0 -67 15 -90
49 -71 26 13 27 20 2 13 -28 -7 -35 13 -32 94 1 40 0 73 -2 73 -3 0 -12 -11
-21 -25z"/>
<path d="M2121 2091 c-9 -6 -10 -11 -2 -15 15 -10 14 -99 -1 -114 -9 -9 -3
-12 28 -12 31 1 36 3 22 11 -14 8 -18 24 -18 74 0 65 -3 72 -29 56z"/>
<path d="M2240 2068 c-24 -39 -24 -50 -5 -87 17 -33 34 -42 65 -34 21 6 20 7
-11 17 -31 10 -34 14 -37 58 -3 39 1 49 20 62 18 13 19 16 5 16 -9 0 -26 -15
-37 -32z"/>
<path d="M2397 2088 c-26 -20 -38 -63 -26 -96 12 -35 52 -57 77 -42 15 8 14 9
-5 10 -26 0 -63 44 -63 75 0 21 28 55 45 55 5 0 17 -7 27 -17 10 -9 21 -13 25
-10 8 9 -27 36 -48 37 -8 0 -23 -6 -32 -12z"/>
<path d="M2526 2081 c-14 -16 -15 -19 -2 -24 9 -3 16 2 19 14 5 17 9 19 26 10
17 -10 20 -9 15 4 -8 21 -37 19 -58 -4z"/>
<path d="M2650 2091 c0 -5 5 -13 10 -16 6 -3 10 -30 10 -59 0 -55 18 -85 41
-70 7 4 30 6 53 6 34 -2 37 0 23 10 -11 9 -17 31 -19 72 -4 80 -23 84 -23 5 0
-47 -4 -64 -17 -73 -27 -16 -42 6 -48 71 -3 32 -10 58 -17 61 -7 2 -13 -1 -13
-7z"/>
<path d="M2930 2090 c-10 -7 -11 -10 -2 -10 8 0 12 -19 12 -59 0 -38 -4 -61
-12 -64 -7 -3 5 -6 27 -6 32 0 36 2 23 10 -13 7 -18 23 -19 57 -1 62 -10 84
-29 72z"/>
<path d="M3020 2068 c-23 -38 -24 -48 -8 -83 20 -45 88 -47 120 -4 16 21 17
30 8 55 -28 72 -86 88 -120 32z m84 0 c19 -27 21 -79 4 -96 -20 -20 -55 -14
-72 13 -21 31 -20 64 1 87 22 24 49 23 67 -4z"/>
<path d="M3181 2091 c-9 -6 -10 -11 -2 -15 15 -10 14 -99 -1 -114 -9 -9 -4
-12 22 -12 30 1 32 2 17 11 -16 9 -18 19 -12 75 7 63 3 72 -24 55z"/>
<path d="M3235 2090 c-3 -5 3 -10 13 -10 11 0 23 -7 26 -16 11 -28 6 -102 -6
-107 -7 -3 5 -6 27 -6 32 0 36 2 23 10 -12 6 -18 22 -18 45 0 62 -44 118 -65
84z"/>
<path d="M3686 2079 c-20 -15 -26 -29 -26 -57 0 -43 7 -55 38 -71 16 -8 28 -9
42 -1 27 14 25 19 -6 17 -18 -1 -32 6 -46 24 -18 24 -19 30 -7 55 11 21 22 30
46 32 27 3 32 0 36 -25 10 -51 7 -146 -4 -160 -9 -10 -5 -13 22 -13 25 0 30 3
19 10 -12 7 -15 30 -15 100 0 70 -3 93 -15 100 -24 16 -55 11 -84 -11z"/>
<path d="M3910 2091 c0 -6 5 -13 10 -16 16 -10 12 -82 -6 -99 -34 -34 -55 -17
-65 54 l-6 45 -2 -56 c-1 -68 15 -89 54 -71 14 7 25 8 25 3 0 -5 9 -7 20 -4
16 4 18 8 9 19 -7 8 -9 29 -6 50 6 38 -6 84 -23 84 -5 0 -10 -4 -10 -9z"/>
<path d="M4000 2090 c-10 -7 -11 -10 -2 -10 8 0 12 -19 12 -59 0 -38 -4 -61
-12 -64 -7 -3 3 -6 22 -6 26 -1 31 2 22 11 -7 7 -12 32 -13 58 -1 60 -10 82
-29 70z"/>
<path d="M4191 2074 c-28 -35 -26 -75 4 -108 26 -28 30 -29 60 -16 19 8 19 9
-2 9 -13 1 -32 10 -44 22 -26 26 -20 75 12 102 16 13 18 17 6 17 -9 0 -25 -12
-36 -26z"/>
<path d="M3579 2067 c-15 -11 -14 -14 7 -30 24 -18 24 -18 15 7 -6 13 -7 27
-4 30 11 10 -1 6 -18 -7z"/>
<path d="M2310 2060 c0 -5 -12 -11 -27 -13 -20 -3 -15 -4 15 -6 41 -1 57 11
27 23 -8 3 -15 1 -15 -4z"/>
<path d="M4260 2061 c0 -5 -10 -12 -22 -14 -14 -3 -7 -5 16 -6 33 -1 37 1 26
14 -14 17 -20 19 -20 6z"/>
<path d="M2543 2022 c-23 -11 -33 -23 -33 -38 0 -32 24 -48 50 -34 14 8 25 8
33 1 7 -5 19 -6 26 -2 10 6 9 10 -3 14 -9 4 -16 13 -16 22 0 12 -5 10 -21 -6
-20 -20 -22 -20 -38 -4 -15 15 -15 17 3 31 11 8 26 14 33 14 7 0 13 5 13 10 0
12 -7 11 -47 -8z"/>
<path d="M3350 1975 c0 -3 6 -15 13 -26 10 -17 10 -23 0 -26 -7 -3 -13 -9 -13
-15 0 -6 6 -5 15 2 18 15 16 70 -2 70 -7 0 -13 -2 -13 -5z"/>
<path d="M4327 1973 c-4 -3 -2 -12 4 -19 7 -9 7 -19 -1 -35 -8 -14 -8 -19 -1
-15 22 14 30 41 17 58 -7 10 -16 15 -19 11z"/>
<path d="M1936 1781 c-3 -5 1 -11 9 -15 11 -4 15 -23 15 -81 0 -42 -5 -85 -10
-96 -10 -17 -7 -19 21 -19 26 0 29 2 19 14 -7 9 -12 49 -12 103 0 55 -4 91
-11 95 -16 10 -25 10 -31 -1z"/>
<path d="M3170 1780 c0 -5 5 -10 10 -10 6 0 10 -40 10 -100 l0 -100 43 0 c57
0 92 33 82 78 -8 39 -46 75 -69 66 -15 -6 -13 -9 13 -20 28 -12 31 -17 31 -57
0 -46 -10 -57 -50 -57 -28 0 -39 28 -33 86 7 67 -3 124 -22 124 -8 0 -15 -4
-15 -10z"/>
<path d="M3430 1781 c0 -6 5 -13 10 -16 13 -8 13 -151 0 -176 -10 -17 -7 -19
20 -19 29 0 30 1 16 16 -12 12 -16 37 -16 110 0 77 -3 94 -15 94 -8 0 -15 -4
-15 -9z"/>
<path d="M3525 1780 c-4 -6 -2 -17 4 -23 15 -15 25 -2 13 19 -7 12 -11 13 -17
4z"/>
<path d="M3755 1764 c-16 -25 -16 -25 4 -14 12 6 21 17 21 25 0 21 -5 19 -25
-11z"/>
<path d="M2027 1770 c39 -16 40 -70 2 -90 -17 -10 -16 -13 13 -60 24 -38 37
-50 56 -50 l25 0 -27 21 c-14 11 -34 35 -42 52 -15 29 -15 31 6 47 17 13 21
22 15 41 -11 35 -25 49 -49 48 l-21 0 22 -9z"/>
<path d="M3357 1774 c-8 -8 1 -24 14 -24 5 0 9 7 9 15 0 15 -12 20 -23 9z"/>
<path d="M1295 1759 c-4 -6 -5 -12 -2 -15 2 -3 7 2 10 11 7 17 1 20 -8 4z"/>
<path d="M3608 1729 c-10 -15 -13 -30 -8 -35 5 -5 10 -34 12 -64 3 -49 6 -55
27 -58 13 -2 28 1 35 8 8 8 7 10 -5 5 -26 -10 -38 17 -41 95 -3 74 -3 74 -20
49z"/>
<path d="M2151 1694 c-42 -53 -17 -124 43 -124 20 0 39 7 47 18 13 15 12 16
-3 3 -22 -17 -64 -7 -77 18 -6 10 -8 34 -4 54 4 27 12 39 32 46 23 8 24 9 4
10 -12 1 -31 -10 -42 -25z"/>
<path d="M2293 1713 c-7 -2 -13 -17 -13 -32 0 -19 8 -32 30 -44 33 -20 41 -57
13 -57 -9 0 -25 8 -36 18 -19 16 -19 16 -16 -3 5 -26 69 -34 88 -11 11 13 7
22 -23 53 -37 39 -46 67 -23 76 6 3 8 5 2 5 -5 0 -16 -2 -22 -5z"/>
<path d="M2415 1713 c-6 -2 -9 -40 -7 -98 3 -65 0 -100 -8 -110 -11 -13 -7
-15 26 -15 32 0 35 2 21 13 -13 9 -17 33 -19 113 -2 61 -7 99 -13 97z"/>
<path d="M2467 1713 c-4 -3 3 -11 16 -17 33 -17 37 -88 5 -110 -16 -11 -18
-16 -7 -16 21 0 59 42 59 64 0 10 -9 34 -21 52 -20 32 -38 42 -52 27z"/>
<path d="M2638 1713 c15 -3 29 -17 38 -40 16 -37 12 -64 -13 -89 -15 -15 -15
-16 3 -12 25 4 48 53 40 84 -9 34 -42 64 -68 63 -23 -2 -23 -2 0 -6z"/>
<path d="M2746 1711 c-14 -5 -16 -10 -8 -15 16 -9 15 -99 0 -114 -9 -9 -5 -12
21 -12 28 0 32 2 21 15 -7 9 -11 37 -8 75 1 33 1 60 -2 59 -3 0 -14 -4 -24 -8z"/>
<path d="M2806 1711 c-3 -5 4 -11 15 -14 19 -5 21 -12 17 -66 l-3 -61 28 0
c26 0 27 1 13 16 -9 8 -16 32 -16 52 0 52 -37 102 -54 73z"/>
<path d="M2933 1713 c-7 -2 -13 -17 -13 -32 0 -19 8 -32 30 -44 33 -20 41 -57
13 -57 -9 0 -25 8 -36 18 -19 16 -19 16 -16 -3 3 -15 13 -21 42 -23 52 -4 58
18 18 68 -33 41 -39 65 -18 73 6 3 8 5 2 5 -5 0 -16 -2 -22 -5z"/>
<path d="M3058 1709 c-10 -5 -18 -17 -18 -24 0 -22 18 -18 25 6 5 14 13 19 26
16 10 -3 19 -1 19 4 0 12 -31 11 -52 -2z"/>
<path d="M3720 1700 c-23 -23 -28 -98 -8 -118 7 -7 28 -12 48 -11 l35 1 -32 9
c-35 10 -45 31 -40 84 2 20 11 34 27 42 18 9 20 13 8 13 -10 0 -27 -9 -38 -20z"/>
<path d="M2589 1693 c-13 -16 -12 -17 4 -4 9 7 17 15 17 17 0 8 -8 3 -21 -13z"/>
<path d="M3355 1700 c3 -5 8 -10 11 -10 2 0 4 5 4 10 0 6 -5 10 -11 10 -5 0
-7 -4 -4 -10z"/>
<path d="M3518 1698 c16 -16 16 -100 0 -116 -9 -9 -4 -12 22 -12 26 0 31 3 22
12 -7 7 -12 28 -12 48 0 52 -10 80 -28 80 -12 0 -13 -3 -4 -12z"/>
<path d="M3111 1677 c0 -9 -17 -25 -36 -34 -37 -17 -48 -34 -39 -58 7 -17 49
-20 59 -5 3 6 -3 10 -14 10 -30 0 -27 32 4 47 24 11 25 10 25 -23 0 -37 22
-56 43 -35 8 8 7 11 -6 11 -16 0 -23 16 -30 75 -2 17 -5 22 -6 12z"/>
<path d="M2200 1670 l-25 -7 28 -8 c17 -4 33 -3 38 2 14 14 -10 21 -41 13z"/>
<path d="M3372 1638 c-1 -33 -7 -50 -19 -57 -15 -8 -10 -10 21 -11 34 0 37 2
23 13 -9 7 -18 31 -20 57 l-4 45 -1 -47z"/>
<path d="M3760 1670 l-25 -7 28 -8 c17 -4 33 -3 38 2 14 14 -10 21 -41 13z"/>
<path d="M2570 1640 c0 -35 26 -70 53 -70 21 0 21 0 -2 16 -13 9 -29 31 -37
48 -13 30 -13 30 -14 6z"/>
<path d="M1940 1400 c0 -5 5 -10 10 -10 15 0 13 -187 -2 -193 -7 -3 5 -6 27
-6 31 0 36 2 23 9 -14 8 -17 27 -17 101 0 49 -3 94 -6 100 -8 12 -35 12 -35
-1z"/>
<path d="M2043 1382 c24 -26 21 -68 -5 -86 -18 -13 -19 -16 -5 -16 9 0 26 9
37 20 19 19 19 22 5 56 -8 20 -15 38 -15 40 0 2 -7 4 -17 4 -15 0 -15 -1 0
-18z"/>
<path d="M2472 1388 c6 -18 28 -21 28 -4 0 9 -7 16 -16 16 -9 0 -14 -5 -12
-12z"/>
<path d="M2700 1385 c0 -8 5 -15 10 -15 6 0 10 7 10 15 0 8 -4 15 -10 15 -5 0
-10 -7 -10 -15z"/>
<path d="M3192 1389 c2 -7 10 -15 17 -17 8 -3 12 1 9 9 -2 7 -10 15 -17 17 -8
3 -12 -1 -9 -9z"/>
<path d="M2376 1346 c-10 -15 -12 -27 -6 -31 6 -3 10 -33 10 -66 0 -64 13 -80
47 -60 17 10 17 10 0 11 -25 0 -35 36 -29 108 2 34 2 62 -1 62 -2 0 -12 -11
-21 -24z"/>
<path d="M3093 1340 c-8 -12 -9 -21 -3 -25 6 -3 10 -33 10 -66 0 -43 4 -61 15
-65 26 -11 38 7 15 23 -19 14 -21 22 -16 63 4 26 3 57 -2 69 -7 20 -8 20 -19
1z"/>
<path d="M2126 1325 c-16 -12 -17 -18 -8 -27 9 -9 12 -8 12 6 0 12 6 16 22 14
39 -5 33 -35 -11 -58 -44 -22 -53 -48 -25 -71 13 -10 20 -10 36 0 15 9 23 9
33 1 8 -7 19 -8 26 -4 8 5 7 9 -5 16 -11 6 -16 23 -16 54 0 75 -23 100 -64 69z
m54 -84 c0 -22 -25 -45 -40 -36 -16 10 -12 43 8 48 30 8 32 7 32 -12z"/>
<path d="M2256 1330 c-14 -4 -16 -9 -8 -14 16 -10 16 -113 0 -119 -7 -3 2 -6
21 -6 29 -1 32 1 21 14 -7 9 -11 31 -8 53 7 55 -3 81 -26 72z"/>
<path d="M2570 1320 c-31 -31 -28 -104 5 -126 16 -10 32 -13 47 -8 22 7 21 8
-10 16 -56 15 -70 93 -20 119 17 9 24 8 33 -5 7 -9 18 -16 26 -16 18 1 -28 40
-47 40 -8 0 -23 -9 -34 -20z"/>
<path d="M2785 1332 c-6 -4 -10 -54 -10 -115 l0 -107 28 0 c26 0 27 1 12 16
-9 10 -14 26 -12 38 8 36 -7 176 -18 168z"/>
<path d="M2848 1334 c-3 -3 5 -16 18 -29 29 -29 31 -68 4 -95 -11 -11 -15 -20
-10 -20 19 0 50 40 50 66 0 14 -9 39 -21 55 -20 29 -30 34 -41 23z"/>
<path d="M2964 1326 c-15 -12 -17 -17 -6 -27 10 -11 12 -10 12 4 0 10 8 17 21
17 11 0 17 5 14 10 -8 14 -18 13 -41 -4z"/>
<path d="M3304 1330 c-32 -12 -49 -72 -32 -106 19 -40 63 -52 97 -27 40 31 41
83 1 123 -22 22 -33 23 -66 10z m64 -33 c9 -18 11 -42 8 -63 -6 -29 -11 -34
-36 -34 -54 0 -79 71 -39 111 26 26 50 21 67 -14z"/>
<path d="M3443 1334 c-8 -4 -8 -15 -2 -40 6 -21 6 -47 0 -69 -9 -33 -8 -35 16
-35 21 0 23 2 13 15 -7 9 -11 37 -8 75 1 33 1 60 -2 59 -3 0 -10 -3 -17 -5z"/>
<path d="M3502 1333 c-10 -4 -7 -9 10 -17 18 -9 24 -21 26 -54 2 -24 -2 -50
-9 -58 -9 -12 -6 -14 22 -14 28 1 31 3 17 11 -12 7 -17 22 -16 52 0 24 -6 53
-13 65 -14 23 -16 24 -37 15z"/>
<path d="M2325 1320 c-3 -5 -1 -10 4 -10 6 0 11 5 11 10 0 6 -2 10 -4 10 -3 0
-8 -4 -11 -10z"/>
<path d="M2468 1318 c16 -16 16 -115 0 -121 -7 -3 3 -6 22 -6 26 -1 31 2 22
11 -7 7 -12 28 -12 48 0 52 -10 80 -28 80 -12 0 -13 -3 -4 -12z"/>
<path d="M2698 1269 c3 -44 0 -64 -10 -70 -8 -6 -1 -8 22 -8 19 0 29 3 23 6
-9 3 -13 27 -13 69 0 44 -4 64 -12 64 -10 0 -12 -17 -10 -61z"/>
<path d="M3188 1318 c16 -16 16 -115 0 -121 -7 -3 5 -6 27 -6 32 0 36 2 23 10
-13 7 -18 23 -18 54 0 54 -8 75 -28 75 -12 0 -13 -3 -4 -12z"/>
<path d="M2990 1264 l-25 -15 28 6 c22 4 27 2 27 -14 0 -28 -26 -47 -45 -31
-8 7 -15 19 -15 27 0 8 -4 11 -10 8 -15 -9 -12 -41 6 -56 13 -10 20 -10 36 0
13 8 23 9 32 2 6 -5 18 -6 25 -2 10 6 9 10 -3 14 -10 4 -16 19 -16 42 0 39 -4
41 -40 19z"/>
</g>
</svg>
